0 FILE demo-steps.ldr
0 Bricky synthetic three-step viewer fixture
0 Name: demo-steps.ldr
0 Author: Bricky contributors
0 !LDRAW_ORG Unofficial_Model
0 !LICENSE Redistributable under CCAL version 2.0 : see CAreadme.txt
0 // Synthetic geometry for testing; this is not an official LEGO model.
0 BFC NOCERTIFY
0 !COLOUR Bricky_Red CODE 4 VALUE #C91A09 EDGE #333333
0 !COLOUR Bricky_Yellow CODE 14 VALUE #F2CD37 EDGE #333333
0 !COLOUR Bricky_Green CODE 2 VALUE #237841 EDGE #333333
1 4 0 0 0 1 0 0 0 1 0 0 0 1 stage-1-base.ldr
0 STEP
1 14 0 0 0 1 0 0 0 1 0 0 0 1 stage-2-tower.ldr
0 STEP
1 2 0 0 0 1 0 0 0 1 0 0 0 1 stage-3-roof.ldr

0 FILE stage-1-base.ldr
0 Stage 1 - red base
0 Name: stage-1-base.ldr
0 Author: Bricky contributors
0 !LDRAW_ORG Unofficial_Model
0 BFC NOCERTIFY
4 16 -60 0 -40 60 0 -40 60 0 40 -60 0 40
4 16 -60 12 40 60 12 40 60 12 -40 -60 12 -40
4 16 -60 0 40 60 0 40 60 12 40 -60 12 40
4 16 60 0 -40 -60 0 -40 -60 12 -40 60 12 -40
4 16 -60 0 -40 -60 0 40 -60 12 40 -60 12 -40
4 16 60 0 40 60 0 -40 60 12 -40 60 12 40

0 FILE stage-2-tower.ldr
0 Stage 2 - yellow tower
0 Name: stage-2-tower.ldr
0 Author: Bricky contributors
0 !LDRAW_ORG Unofficial_Model
0 BFC NOCERTIFY
4 16 -32 -52 -25 32 -52 -25 32 -52 25 -32 -52 25
4 16 -32 0 25 32 0 25 32 0 -25 -32 0 -25
4 16 -32 -52 25 32 -52 25 32 0 25 -32 0 25
4 16 32 -52 -25 -32 -52 -25 -32 0 -25 32 0 -25
4 16 -32 -52 -25 -32 -52 25 -32 0 25 -32 0 -25
4 16 32 -52 25 32 -52 -25 32 0 -25 32 0 25

0 FILE stage-3-roof.ldr
0 Stage 3 - green roof
0 Name: stage-3-roof.ldr
0 Author: Bricky contributors
0 !LDRAW_ORG Unofficial_Model
0 BFC NOCERTIFY
4 16 -46 -64 -36 46 -64 -36 46 -64 36 -46 -64 36
4 16 -46 -52 36 46 -52 36 46 -52 -36 -46 -52 -36
4 16 -46 -64 36 46 -64 36 46 -52 36 -46 -52 36
4 16 46 -64 -36 -46 -64 -36 -46 -52 -36 46 -52 -36
4 16 -46 -64 -36 -46 -64 36 -46 -52 36 -46 -52 -36
4 16 46 -64 36 46 -64 -36 46 -52 -36 46 -52 36
0 NOFILE
